<?xml version="1.0" encoding="UTF-8" standalone="no"?>
<svg width="83px" height="66px" viewBox="0 0 83 66" version="1.1" xmlns="http://www.w3.org/2000/svg" xmlns:xlink="http://www.w3.org/1999/xlink" xmlns:sketch="http://www.bohemiancoding.com/sketch/ns">
    <title>Artboard 1</title>
    <description>Created with Sketch (http://www.bohemiancoding.com/sketch)</description>
    <defs></defs>
    <g id="Page-1" stroke="none" stroke-width="1" fill="none" fill-rule="evenodd" sketch:type="MSPage">
        <g id="Artboard-1" sketch:type="MSArtboardGroup" fill="#D8D8D8">
            <path d="M82.2573284,0.121454467 C82.2573284,0.121454467 83.2141376,4.17966027 83.2141377,6.62164438 C83.2141379,9.06362848 80.4816944,11.1710885 80.4816944,11.1710885 C80.4816944,11.1710885 77.2583019,27.1094257 73.9661341,29.0037727 C73.9661341,29.0037727 73.0863194,32.1552742 74.9826359,36.4808424 C76.8789524,40.8064106 72.6373283,40.7607727 72.6373283,40.7607727 C72.6373283,40.7607727 69.107688,40.1700813 69.107688,42.6370363 C69.107688,45.1039913 67.568661,43.9807303 67.568661,43.9807303 C67.568661,43.9807303 66.8506215,46.4076455 65.1511169,46.4076458 C63.4516123,46.4076461 63.997928,47.9493851 63.997928,47.9493851 C63.997928,47.9493851 63.7340704,52.5190659 59.0421573,51.8973744 C54.3502442,51.2756828 48.3598044,50.1597432 47.1815277,48.5783941 C46.0032511,46.9970449 44.0532975,48.9508068 45.3786428,49.9393095 C46.7039882,50.927812 49.5843648,51.7161186 53.0019738,52.2637581 C56.4195828,52.8113977 59.3479736,53.9122713 62.2495449,56.9759437 C65.1511166,60.0396157 66.1416656,64.5425638 66.1416655,65.8005823 L0.323822294,65.9960443 L0.138256645,0.0525691587 L82.2573284,0.121454467 Z" id="Path-1" sketch:type="MSShapeGroup"></path>
        </g>
    </g>
</svg>